<?xml version="1.0" encoding="UTF-8" standalone="no"?>
<svg width="33px" height="481px" viewBox="0 0 33 481" version="1.1" xmlns="http://www.w3.org/2000/svg" xmlns:xlink="http://www.w3.org/1999/xlink" xmlns:sketch="http://www.bohemiancoding.com/sketch/ns">
    <!-- Generator: Sketch 3.4.4 (17249) - http://www.bohemiancoding.com/sketch -->
    <title>BETTER FOR EVERYONE</title>
    <desc>Created with Sketch.</desc>
    <defs></defs>
    <g id="Page-1" stroke="none" stroke-width="1" fill="none" fill-rule="evenodd" sketch:type="MSPage">
        <g id="UTAH-PAGE" sketch:type="MSArtboardGroup" transform="translate(-962.000000, -3306.000000)" fill="#00BFD7">
            <path d="M737.655,3532.513 L737.655,3563 L748.921,3563 C754.597,3563 758.381,3559.517 758.381,3554.572 C758.381,3550.96 756.188,3548.165 752.92,3547.305 C755.543,3546.316 757.435,3543.994 757.435,3540.726 C757.435,3535.91 753.995,3532.513 748.147,3532.513 L737.655,3532.513 Z M742.772,3545.413 L742.772,3536.899 L747.33,3536.899 C750.469,3536.899 752.275,3538.576 752.275,3541.156 C752.275,3543.736 750.512,3545.413 747.459,3545.413 L742.772,3545.413 Z M742.772,3558.614 L742.772,3549.756 L748.19,3549.756 C751.415,3549.756 753.135,3551.605 753.135,3554.228 C753.135,3556.98 751.114,3558.614 748.018,3558.614 L742.772,3558.614 Z M782.59,3563 L782.59,3558.184 L768.916,3558.184 L768.916,3550.1 L781.3,3550.1 L781.3,3545.413 L768.916,3545.413 L768.916,3537.329 L782.59,3537.329 L782.59,3532.513 L763.756,3532.513 L763.756,3563 L782.59,3563 Z M810.97,3537.372 L810.97,3532.513 L785.987,3532.513 L785.987,3537.372 L795.877,3537.372 L795.877,3563 L801.037,3563 L801.037,3537.372 L810.97,3537.372 Z M837.931,3537.372 L837.931,3532.513 L812.948,3532.513 L812.948,3537.372 L822.838,3537.372 L822.838,3563 L827.998,3563 L827.998,3537.372 L837.931,3537.372 Z M860.979,3563 L860.979,3558.184 L847.305,3558.184 L847.305,3550.1 L859.689,3550.1 L859.689,3545.413 L847.305,3545.413 L847.305,3537.329 L860.979,3537.329 L860.979,3532.513 L842.145,3532.513 L842.145,3563 L860.979,3563 Z M882.565,3563 L888.413,3563 L881.533,3550.444 C885.833,3549.412 888.413,3546.101 888.413,3541.758 C888.413,3536.598 884.758,3532.513 878.867,3532.513 L867.171,3532.513 L867.171,3563 L872.374,3563 L872.374,3550.96 L876.158,3550.96 L882.565,3563 Z M872.374,3546.402 L872.374,3537.071 L877.921,3537.071 C881.146,3537.071 883.167,3538.877 883.167,3541.758 C883.167,3544.553 881.146,3546.402 877.921,3546.402 L872.374,3546.402 Z M909.741,3563 L909.741,3550.702 L922.125,3550.702 L922.125,3545.929 L909.741,3545.929 L909.741,3537.372 L923.544,3537.372 L923.544,3532.513 L904.581,3532.513 L904.581,3563 L909.741,3563 Z M931.757,3547.735 C931.757,3540.382 936.831,3536.727 941.948,3536.727 C947.108,3536.727 952.182,3540.382 952.182,3547.735 C952.182,3555.088 947.108,3558.743 941.948,3558.743 C936.831,3558.743 931.757,3555.088 931.757,3547.735 L931.757,3547.735 Z M926.468,3547.735 C926.468,3557.754 933.907,3563.645 941.948,3563.645 C949.946,3563.645 957.471,3557.754 957.471,3547.735 C957.471,3537.759 949.946,3531.868 941.948,3531.868 C933.907,3531.868 926.468,3537.759 926.468,3547.735 L926.468,3547.735 Z M978.326,3563 L984.174,3563 L977.294,3550.444 C981.594,3549.412 984.174,3546.101 984.174,3541.758 C984.174,3536.598 980.519,3532.513 974.628,3532.513 L962.932,3532.513 L962.932,3563 L968.135,3563 L968.135,3550.96 L971.919,3550.96 L978.326,3563 Z M968.135,3546.402 L968.135,3537.071 L973.682,3537.071 C976.907,3537.071 978.928,3538.877 978.928,3541.758 C978.928,3544.553 976.907,3546.402 973.682,3546.402 L968.135,3546.402 Z M1019.176,3563 L1019.176,3558.184 L1005.502,3558.184 L1005.502,3550.1 L1017.886,3550.1 L1017.886,3545.413 L1005.502,3545.413 L1005.502,3537.329 L1019.176,3537.329 L1019.176,3532.513 L1000.342,3532.513 L1000.342,3563 L1019.176,3563 Z M1036.333,3556.249 L1027.819,3532.513 L1022.229,3532.513 L1033.581,3563 L1038.827,3563 L1050.351,3532.513 L1044.89,3532.513 L1036.333,3556.249 Z M1073.27,3563 L1073.27,3558.184 L1059.596,3558.184 L1059.596,3550.1 L1071.98,3550.1 L1071.98,3545.413 L1059.596,3545.413 L1059.596,3537.329 L1073.27,3537.329 L1073.27,3532.513 L1054.436,3532.513 L1054.436,3563 L1073.27,3563 Z M1094.856,3563 L1100.704,3563 L1093.824,3550.444 C1098.124,3549.412 1100.704,3546.101 1100.704,3541.758 C1100.704,3536.598 1097.049,3532.513 1091.158,3532.513 L1079.462,3532.513 L1079.462,3563 L1084.665,3563 L1084.665,3550.96 L1088.449,3550.96 L1094.856,3563 Z M1084.665,3546.402 L1084.665,3537.071 L1090.212,3537.071 C1093.437,3537.071 1095.458,3538.877 1095.458,3541.758 C1095.458,3544.553 1093.437,3546.402 1090.212,3546.402 L1084.665,3546.402 Z M1113.217,3550.1 L1113.217,3563 L1118.377,3563 L1118.377,3550.1 L1129.127,3532.513 L1123.322,3532.513 L1115.969,3545.284 L1108.659,3532.513 L1102.553,3532.513 L1113.217,3550.1 Z M1134.631,3547.735 C1134.631,3540.382 1139.705,3536.727 1144.822,3536.727 C1149.982,3536.727 1155.056,3540.382 1155.056,3547.735 C1155.056,3555.088 1149.982,3558.743 1144.822,3558.743 C1139.705,3558.743 1134.631,3555.088 1134.631,3547.735 L1134.631,3547.735 Z M1129.342,3547.735 C1129.342,3557.754 1136.781,3563.645 1144.822,3563.645 C1152.82,3563.645 1160.345,3557.754 1160.345,3547.735 C1160.345,3537.759 1152.82,3531.868 1144.822,3531.868 C1136.781,3531.868 1129.342,3537.759 1129.342,3547.735 L1129.342,3547.735 Z M1191.391,3563 L1191.391,3532.513 L1186.231,3532.513 L1186.231,3554.142 L1172.385,3532.513 L1165.806,3532.513 L1165.806,3563 L1170.966,3563 L1170.966,3539.909 L1186.016,3563 L1191.391,3563 Z M1217.535,3563 L1217.535,3558.184 L1203.861,3558.184 L1203.861,3550.1 L1216.245,3550.1 L1216.245,3545.413 L1203.861,3545.413 L1203.861,3537.329 L1217.535,3537.329 L1217.535,3532.513 L1198.701,3532.513 L1198.701,3563 L1217.535,3563 Z" id="BETTER-FOR-EVERYONE" sketch:type="MSShapeGroup" transform="translate(978.863500, 3547.756500) rotate(90.000000) translate(-978.863500, -3547.756500) "></path>
        </g>
    </g>
</svg>