<?xml version="1.0" encoding="UTF-8" standalone="no"?>
<svg width="148px" height="67px" viewBox="0 0 148 67" version="1.1" xmlns="http://www.w3.org/2000/svg" xmlns:xlink="http://www.w3.org/1999/xlink" xmlns:sketch="http://www.bohemiancoding.com/sketch/ns">
    <!-- Generator: Sketch 3.4.4 (17249) - http://www.bohemiancoding.com/sketch -->
    <title>Page 1 Copy</title>
    <desc>Created with Sketch.</desc>
    <defs>
        <path id="path-1" d="M0,0 L147.736,0 L147.736,67 L0,67 L0,0 Z"></path>
    </defs>
    <g id="Page-1" stroke="none" stroke-width="1" fill="none" fill-rule="evenodd" sketch:type="MSPage">
        <g id="UTAH-PAGE" sketch:type="MSArtboardGroup" transform="translate(-125.000000, -7.000000)">
            <g id="Page-1-Copy" sketch:type="MSLayerGroup" transform="translate(125.000000, 7.000000)">
                <path d="M85.158,30.853768 L85.158,25.089088 L82.6433333,30.853768 L81.7086667,30.853768 L79.2153333,25.089088 L79.2153333,30.853768 L78.206,30.853768 L78.206,23.450268 L79.5886667,23.450268 L82.186,29.474908 L84.8046667,23.450268 L86.166,23.450268 L86.166,30.853768 L85.158,30.853768 Z" id="Fill-1" fill="#BCBEC0" sketch:type="MSShapeGroup"></path>
                <path d="M89.5213333,27.83582 L92.0573333,27.83582 L90.7786667,24.5153 L89.5213333,27.83582 Z M92.42,28.78588 L89.1573333,28.78588 L88.3786667,30.8535 L87.288,30.8535 L90.2173333,23.45 L91.392,23.45 L94.3213333,30.8535 L93.22,30.8535 L92.42,28.78588 Z" id="Fill-2" fill="#BCBEC0" sketch:type="MSShapeGroup"></path>
                <g id="Group-27">
                    <path d="M97.956,29.945248 C99.328,29.945248 100.46,29.036728 100.46,27.167428 C100.46,25.298128 99.3386667,24.358788 97.9773333,24.358788 L96.4493333,24.358788 L96.4493333,29.945248 L97.956,29.945248 Z M95.4306667,30.853768 L95.4306667,23.450268 L98.008,23.450268 C99.8786667,23.450268 101.509333,24.744708 101.509333,27.167428 C101.509333,29.590148 99.8573333,30.853768 97.988,30.853768 L95.4306667,30.853768 Z" id="Fill-3" fill="#BCBEC0" sketch:type="MSShapeGroup"></path>
                    <path d="M103.0192,30.853768 L103.0192,23.450268 L107.497867,23.450268 L107.497867,24.400328 L104.037867,24.400328 L104.037867,26.676988 L107.1752,26.676988 L107.1752,27.637768 L104.037867,27.637768 L104.037867,29.903708 L107.497867,29.903708 L107.497867,30.853768 L103.0192,30.853768 Z" id="Fill-5" fill="#BCBEC0" sketch:type="MSShapeGroup"></path>
                    <path d="M114.091067,29.9557 C114.923067,29.9557 115.473733,29.49608 115.473733,28.77516 C115.473733,28.06496 115.0364,27.5638 114.1324,27.5638 L112.677733,27.5638 L112.677733,29.9557 L114.091067,29.9557 Z M113.945733,26.68744 C114.777733,26.68744 115.255067,26.20638 115.255067,25.5069 C115.255067,24.7967 114.745733,24.3478 113.9044,24.3478 L112.677733,24.3478 L112.677733,26.68744 L113.945733,26.68744 Z M114.0604,23.45 C115.463067,23.45 116.283067,24.29554 116.283067,25.45464 C116.283067,26.24926 115.8364,26.81206 115.181733,27.05326 C116.0244,27.2824 116.5124,28.00198 116.5124,28.83814 C116.5124,30.00796 115.587067,30.8535 114.2364,30.8535 L111.659067,30.8535 L111.659067,23.45 L114.0604,23.45 Z" id="Fill-7" fill="#BCBEC0" sketch:type="MSShapeGroup"></path>
                    <path d="M116.915467,23.45 L118.142133,23.45 L120.0528,26.74908 L121.9648,23.45 L123.1288,23.45 L120.531467,27.68976 L120.531467,30.8535 L119.5128,30.8535 L119.5128,27.68976 L116.915467,23.45 Z" id="Fill-9" fill="#BCBEC0" sketch:type="MSShapeGroup"></path>
                    <path d="M82.924,35.989854 L83.9946667,35.989854 L81.1573333,43.393354 L80.1493333,43.393354 L77.3746667,35.989854 L78.456,35.989854 L80.68,42.077474 L82.924,35.989854 Z" id="Fill-11" fill="#BCBEC0" sketch:type="MSShapeGroup"></path>
                    <mask id="mask-2" sketch:name="Clip 14" fill="white">
                        <use xlink:href="#path-1"></use>
                    </mask>
                    <g id="Clip-14"></g>
                    <path d="M85.104,35.98972 L86.144,35.98972 L86.144,43.39322 L85.104,43.39322 L85.104,35.98972 Z" id="Fill-13" fill="#BCBEC0" sketch:type="MSShapeGroup" mask="url(#mask-2)"></path>
                    <path d="M92.7838667,35.989854 L93.8545333,35.989854 L91.0172,43.393354 L90.0092,43.393354 L87.2345333,35.989854 L88.3158667,35.989854 L90.5398667,42.077474 L92.7838667,35.989854 Z" id="Fill-15" fill="#BCBEC0" sketch:type="MSShapeGroup" mask="url(#mask-2)"></path>
                    <path d="M94.964,35.98972 L96.004,35.98972 L96.004,43.39322 L94.964,43.39322 L94.964,35.98972 Z" id="Fill-16" fill="#BCBEC0" sketch:type="MSShapeGroup" mask="url(#mask-2)"></path>
                    <path d="M102.9136,43.393622 L98.9336,37.358262 L98.9336,43.393622 L97.9149333,43.393622 L97.9149333,35.990122 L99.2762667,35.990122 L102.954933,41.670382 L102.954933,35.990122 L103.9736,35.990122 L103.9736,43.393622 L102.9136,43.393622 Z" id="Fill-17" fill="#BCBEC0" sketch:type="MSShapeGroup" mask="url(#mask-2)"></path>
                    <path d="M108.5636,36.939914 L108.5636,43.393354 L107.544933,43.393354 L107.544933,36.939914 L105.082267,36.939914 L105.082267,35.989854 L111.026267,35.989854 L111.026267,36.939914 L108.5636,36.939914 Z" id="Fill-18" fill="#BCBEC0" sketch:type="MSShapeGroup" mask="url(#mask-2)"></path>
                    <path d="M118.451733,37.994896 C118.369067,37.452196 117.921067,36.731276 116.893067,36.731276 C116.061067,36.731276 115.469067,37.263256 115.469067,37.962736 C115.469067,38.496056 115.791733,38.903416 116.4144,39.038756 L117.515733,39.278616 C118.753067,39.561356 119.427733,40.313096 119.427733,41.356956 C119.427733,42.495956 118.451733,43.550536 116.8824,43.550536 C115.105067,43.550536 114.263733,42.391436 114.129067,41.347576 L115.105067,41.034016 C115.189067,41.868836 115.759733,42.620576 116.871733,42.620576 C117.879733,42.620576 118.389067,42.097976 118.389067,41.440036 C118.389067,40.908056 118.035733,40.448436 117.287733,40.291656 L116.2384,40.062516 C115.189067,39.822656 114.441067,39.153996 114.441067,38.036436 C114.441067,36.877336 115.501067,35.833476 116.871733,35.833476 C118.523733,35.833476 119.199733,36.866616 119.3664,37.670616 L118.451733,37.994896 Z" id="Fill-19" fill="#BCBEC0" sketch:type="MSShapeGroup" mask="url(#mask-2)"></path>
                    <path d="M124.118533,42.610392 C125.490533,42.610392 126.778533,41.618792 126.778533,39.686512 C126.778533,37.754232 125.490533,36.773352 124.118533,36.773352 C122.746533,36.773352 121.458533,37.754232 121.458533,39.686512 C121.458533,41.618792 122.746533,42.610392 124.118533,42.610392 M124.118533,35.832672 C125.978533,35.832672 127.8172,37.222252 127.8172,39.686512 C127.8172,42.161492 125.978533,43.549732 124.118533,43.549732 C122.258533,43.549732 120.418533,42.161492 120.418533,39.686512 C120.418533,37.222252 122.258533,35.832672 124.118533,35.832672" id="Fill-20" fill="#BCBEC0" sketch:type="MSShapeGroup" mask="url(#mask-2)"></path>
                    <path d="M129.312933,43.393622 L129.312933,35.990122 L130.3316,35.990122 L130.3316,42.432842 L133.812933,42.432842 L133.812933,43.393622 L129.312933,43.393622 Z" id="Fill-21" fill="#BCBEC0" sketch:type="MSShapeGroup" mask="url(#mask-2)"></path>
                    <path d="M136.797867,40.375674 L139.332533,40.375674 L138.0552,37.055154 L136.797867,40.375674 Z M139.696533,41.325734 L136.433867,41.325734 L135.6552,43.393354 L134.5632,43.393354 L137.493867,35.989854 L138.6672,35.989854 L141.597867,43.393354 L140.496533,43.393354 L139.696533,41.325734 Z" id="Fill-22" fill="#BCBEC0" sketch:type="MSShapeGroup" mask="url(#mask-2)"></path>
                    <path d="M145.295067,39.446384 C146.125733,39.446384 146.687067,38.954604 146.687067,38.193484 C146.687067,37.398864 146.125733,36.908424 145.295067,36.908424 L143.7364,36.908424 L143.7364,39.446384 L145.295067,39.446384 Z M144.837733,40.365624 L143.7364,40.365624 L143.7364,43.394024 L142.707067,43.394024 L142.707067,35.989184 L145.481733,35.989184 C146.873733,35.989184 147.7364,36.971404 147.7364,38.193484 C147.7364,39.268164 147.071067,40.082884 145.949733,40.291924 L147.705733,43.394024 L146.5204,43.394024 L144.837733,40.365624 Z" id="Fill-23" fill="#BCBEC0" sketch:type="MSShapeGroup" mask="url(#mask-2)"></path>
                    <path d="M66.6666667,33.5 C66.6666667,52.00138 51.7426667,67 33.3333333,67 C14.924,67 0,52.00138 0,33.5 C0,14.99862 14.924,0 33.3333333,0 C51.7426667,0 66.6666667,14.99862 66.6666667,33.5" id="Fill-24" fill="#FF4E00" sketch:type="MSShapeGroup" mask="url(#mask-2)"></path>
                    <path d="M29.2517333,21.193842 L21.0890667,21.193842 C14.3264,21.193842 8.84373333,26.703922 8.84373333,33.500402 C8.84373333,40.296882 14.3264,45.805622 21.0890667,45.805622 C24.5864,45.805622 27.7370667,44.326262 29.9677333,41.961162 C30.3637333,41.587302 30.6117333,41.058002 30.6117333,40.468402 L30.6117333,32.132262 C30.6117333,31.377842 30.0037333,30.765462 29.2517333,30.765462 L21.0890667,30.765462 C19.5850667,30.765462 18.3677333,31.988882 18.3677333,33.500402 C18.3677333,35.010582 19.5850667,36.234002 21.0890667,36.234002 L24.4904,36.234002 C24.8650667,36.234002 25.1704,36.540862 25.1704,36.918742 L25.1704,38.231942 L25.1704,38.231942 C25.1704,38.758562 24.8730667,39.214162 24.4397333,39.443302 C23.4504,40.010122 22.3077333,40.337082 21.0890667,40.337082 C17.3370667,40.337082 14.2850667,37.269822 14.2850667,33.500402 C14.2850667,29.729642 17.3370667,26.663722 21.0890667,26.663722 L21.0890667,26.663722 L29.2517333,26.663722 C30.0037333,26.663722 30.6117333,26.051342 30.6117333,25.295582 L30.6117333,22.560642 C30.6117333,21.806222 30.0037333,21.193842 29.2517333,21.193842 M45.5784,21.193842 C38.8157333,21.193842 33.3330667,26.703922 33.3330667,33.500402 C33.3330667,40.296882 38.8157333,45.805622 45.5784,45.805622 C52.3410667,45.805622 57.8237333,40.296882 57.8237333,33.500402 C57.8237333,26.703922 52.3410667,21.193842 45.5784,21.193842" id="Fill-25" fill="#FFFFFF" sketch:type="MSShapeGroup" mask="url(#mask-2)"></path>
                    <path d="M63.6797333,64.560932 L63.6797333,62.757292 L62.8784,64.560932 L62.6117333,64.560932 L61.8117333,62.763992 L61.8117333,64.560932 L61.4904,64.560932 L61.4904,62.187792 L61.9050667,62.187792 L62.7517333,64.098632 L63.5997333,62.187792 L63.9997333,62.187792 L63.9997333,64.560932 L63.6797333,64.560932 Z M60.3704,62.482592 L60.3704,64.560932 L60.0424,64.560932 L60.0424,62.482592 L59.2624,62.482592 L59.2624,62.187792 L61.1437333,62.187792 L61.1437333,62.482592 L60.3704,62.482592 Z" id="Fill-26" fill="#BCBEC0" sketch:type="MSShapeGroup" mask="url(#mask-2)"></path>
                </g>
            </g>
        </g>
    </g>
</svg>