<?xml version="1.0" encoding="UTF-8" standalone="no"?>
<svg width="154px" height="67px" viewBox="0 0 154 67" version="1.1" xmlns="http://www.w3.org/2000/svg" xmlns:xlink="http://www.w3.org/1999/xlink">
    <!-- Generator: Sketch 3.6.1 (26313) - http://www.bohemiancoding.com/sketch -->
    <title>Group 8</title>
    <desc>Created with Sketch.</desc>
    <defs>
        <path id="path-1" d="M0,66.4342105 L147.766979,66.4342105 L147.766979,0.121460526 L0,0.121460526 L0,66.4342105 Z"></path>
    </defs>
    <g id="Page-1" stroke="none" stroke-width="1" fill="none" fill-rule="evenodd">
        <g id="Desktop-HD-Copy-2" transform="translate(-112.000000, -39.000000)">
            <g id="Group-8" transform="translate(112.000000, 39.000000)">
                <g id="Page-1-Copy-2">
                    <path d="M85.1755745,31.2083316 L85.1755745,25.5025947 L82.6595745,31.2083316 L81.7259149,31.2083316 L79.230383,25.5025947 L79.230383,31.2083316 L78.2227234,31.2083316 L78.2227234,23.8804368 L79.6051064,23.8804368 L82.2029787,29.8445289 L84.8228936,23.8804368 L86.183234,23.8804368 L86.183234,31.2083316 L85.1755745,31.2083316 Z" id="Fill-1" fill="#444444"></path>
                    <path d="M89.5398426,28.221275 L92.0763106,28.221275 L90.7978426,24.9346829 L89.5398426,28.221275 Z M92.4400128,29.1623145 L89.1761404,29.1623145 L88.3967787,31.2088013 L87.3056723,31.2088013 L90.2357574,23.8809066 L91.4103106,23.8809066 L94.3419702,31.2088013 L93.2398426,31.2088013 L92.4400128,29.1623145 Z" id="Fill-2" fill="#444444"></path>
                    <g id="Group-27" transform="translate(0.000000, 0.549749)">
                        <path d="M97.9763149,29.7595066 C99.3492511,29.7595066 100.481294,28.8607434 100.481294,27.0099803 C100.481294,25.1592171 99.3586979,24.2307039 97.996783,24.2307039 L96.4695489,24.2307039 L96.4695489,29.7595066 L97.9763149,29.7595066 L97.9763149,29.7595066 Z M95.4508681,30.6582697 L95.4508681,23.330375 L98.0282723,23.330375 C99.8987404,23.330375 101.531464,24.6127566 101.531464,27.0099803 C101.531464,29.4087697 99.8782723,30.6582697 98.0078043,30.6582697 L95.4508681,30.6582697 L95.4508681,30.6582697 Z" id="Fill-3" fill="#444444"></path>
                        <path d="M103.040591,30.6585829 L103.040591,23.3306882 L107.519953,23.3306882 L107.519953,24.2717276 L104.059272,24.2717276 L104.059272,26.5248987 L107.198762,26.5248987 L107.198762,27.4753329 L104.059272,27.4753329 L104.059272,29.7175434 L107.519953,29.7175434 L107.519953,30.6585829 L103.040591,30.6585829 Z" id="Fill-5" fill="#444444"></path>
                        <path d="M114.11477,29.7696842 C114.946089,29.7696842 115.497153,29.3156053 115.497153,28.6016053 C115.497153,27.8985658 115.061026,27.4022105 114.157281,27.4022105 L112.702472,27.4022105 L112.702472,29.7696842 L114.11477,29.7696842 Z M113.969919,26.5347632 C114.801238,26.5347632 115.278302,26.0587632 115.278302,25.3666842 C115.278302,24.6636447 114.769749,24.2189605 113.927409,24.2189605 L112.702472,24.2189605 L112.702472,26.5347632 L113.969919,26.5347632 Z M114.083281,23.3311579 C115.487706,23.3311579 116.308004,24.1672895 116.308004,25.3150132 C116.308004,26.1010395 115.860855,26.6584605 115.205877,26.8964605 C116.048217,27.1235 116.536302,27.8359342 116.536302,28.6642368 C116.536302,29.8213553 115.612089,30.6590526 114.261196,30.6590526 L111.682217,30.6590526 L111.682217,23.3311579 L114.083281,23.3311579 Z" id="Fill-7" fill="#444444"></path>
                        <path d="M116.939681,23.3308447 L118.166191,23.3308447 L120.077596,26.5970816 L121.990574,23.3308447 L123.154106,23.3308447 L120.556234,27.5271605 L120.556234,30.6587395 L119.537553,30.6587395 L119.537553,27.5271605 L116.939681,23.3308447 Z" id="Fill-9" fill="#444444"></path>
                        <path d="M82.9412468,35.742075 L84.0118851,35.742075 L81.1746936,43.0699697 L80.167034,43.0699697 L77.3912468,35.742075 L78.4729064,35.742075 L80.6960553,41.7672329 L82.9412468,35.742075 Z" id="Fill-11" fill="#444444"></path>
                        <mask id="mask-2" fill="white">
                            <use xlink:href="#path-1"></use>
                        </mask>
                        <g id="Clip-14"></g>
                        <path d="M85.1220426,43.0695 L86.1611915,43.0695 L86.1611915,35.7416053 L85.1220426,35.7416053 L85.1220426,43.0695 Z" id="Fill-13" fill="#444444" mask="url(#mask-2)"></path>
                        <path d="M92.8030851,35.742075 L93.8737234,35.742075 L91.0365319,43.0699697 L90.0288723,43.0699697 L87.2530851,35.742075 L88.3347447,35.742075 L90.5578936,41.7672329 L92.8030851,35.742075 Z" id="Fill-15" fill="#444444" mask="url(#mask-2)"></path>
                        <path d="M94.9845106,43.0695 L96.0236596,43.0695 L96.0236596,35.7416053 L94.9845106,35.7416053 L94.9845106,43.0695 Z" id="Fill-16" fill="#444444" mask="url(#mask-2)"></path>
                        <path d="M102.934945,43.0698132 L98.9546894,37.0963263 L98.9546894,43.0698132 L97.9360085,43.0698132 L97.9360085,35.7419184 L99.2979234,35.7419184 L102.975881,41.3646684 L102.975881,35.7419184 L103.994562,35.7419184 L103.994562,43.0698132 L102.934945,43.0698132 Z" id="Fill-17" fill="#444444" mask="url(#mask-2)"></path>
                        <path d="M108.586026,36.6823316 L108.586026,43.0691868 L107.567345,43.0691868 L107.567345,36.6823316 L105.104877,36.6823316 L105.104877,35.7412921 L111.050068,35.7412921 L111.050068,36.6823316 L108.586026,36.6823316 Z" id="Fill-18" fill="#444444" mask="url(#mask-2)"></path>
                        <path d="M118.476362,37.7265566 C118.392915,37.1894908 117.945766,36.4754908 116.917638,36.4754908 C116.086319,36.4754908 115.492745,37.0031618 115.492745,37.6952408 C115.492745,38.2229118 115.815511,38.6253197 116.439,38.7599776 L117.541128,38.9979776 C118.777085,39.2766882 119.452532,40.0204382 119.452532,41.0538592 C119.452532,42.1812276 118.476362,43.2240434 116.906617,43.2240434 C115.129043,43.2240434 114.288277,42.0778855 114.152872,41.0444645 L115.129043,40.7344382 C115.212489,41.561175 115.784021,42.304925 116.895596,42.304925 C117.90483,42.304925 118.413383,41.7882145 118.413383,41.1368461 C118.413383,40.6107408 118.060702,40.1550961 117.31283,40.0000829 L116.26266,39.7730434 C115.212489,39.5350434 114.464617,38.8742803 114.464617,37.7672671 C114.464617,36.6195434 115.524234,35.5861224 116.895596,35.5861224 C118.548787,35.5861224 119.224234,36.6101487 119.391128,37.4055697 L118.476362,37.7265566 Z" id="Fill-19" fill="#444444" mask="url(#mask-2)"></path>
                        <path d="M124.144289,42.2947474 C125.515651,42.2947474 126.80514,41.3129974 126.80514,39.4011684 C126.80514,37.4877737 125.515651,36.5169842 124.144289,36.5169842 C122.771353,36.5169842 121.483438,37.4877737 121.483438,39.4011684 C121.483438,41.3129974 122.771353,42.2947474 124.144289,42.2947474 M124.144289,35.5869053 C126.003736,35.5869053 127.844289,36.9616684 127.844289,39.4011684 C127.844289,41.8500632 126.003736,43.2248263 124.144289,43.2248263 C122.283268,43.2248263 120.444289,41.8500632 120.444289,39.4011684 C120.444289,36.9616684 122.283268,35.5869053 124.144289,35.5869053" id="Fill-20" fill="#444444" mask="url(#mask-2)"></path>
                        <path d="M129.339719,43.0698132 L129.339719,35.7419184 L130.3584,35.7419184 L130.3584,42.1193789 L133.839549,42.1193789 L133.839549,43.0698132 L129.339719,43.0698132 Z" id="Fill-21" fill="#444444" mask="url(#mask-2)"></path>
                        <path d="M136.826315,40.0829132 L139.361209,40.0829132 L138.084315,36.7963211 L136.826315,40.0829132 Z M139.724911,41.0239526 L136.462613,41.0239526 L135.683251,43.0704395 L134.592145,43.0704395 L137.52223,35.7425447 L138.696783,35.7425447 L141.626868,43.0704395 L140.52474,43.0704395 L139.724911,41.0239526 Z" id="Fill-22" fill="#444444" mask="url(#mask-2)"></path>
                        <path d="M145.325136,39.1631684 C146.156455,39.1631684 146.716966,38.6777737 146.716966,37.9230632 C146.716966,37.1370368 146.156455,36.6516421 145.325136,36.6516421 L143.766413,36.6516421 L143.766413,39.1631684 L145.325136,39.1631684 Z M144.86854,40.0728921 L143.766413,40.0728921 L143.766413,43.0698132 L142.736711,43.0698132 L142.736711,35.7419184 L145.510923,35.7419184 C146.904328,35.7419184 147.767136,36.7127079 147.767136,37.9230632 C147.767136,38.9878 147.101136,39.7926158 145.980115,39.9993 L147.737221,43.0698132 L146.551647,43.0698132 L144.86854,40.0728921 Z" id="Fill-23" fill="#444444" mask="url(#mask-2)"></path>
                        <path d="M66.6804553,33.2776789 C66.6804553,51.5895868 51.7529234,66.4348368 33.3395191,66.4348368 C14.9261149,66.4348368 0.000157446809,51.5895868 0.000157446809,33.2776789 C0.000157446809,14.9657711 14.9261149,0.120521053 33.3395191,0.120521053 C51.7529234,0.120521053 66.6804553,14.9657711 66.6804553,33.2776789" id="Fill-24" fill="#FF4E00" mask="url(#mask-2)"></path>
                        <path d="M29.2577106,21.0978724 L21.0925191,21.0978724 C14.3286043,21.0978724 8.84473191,26.5515171 8.84473191,33.2781487 C8.84473191,40.0047803 14.3286043,45.458425 21.0925191,45.458425 C24.5925617,45.458425 27.7430723,43.9928461 29.9740936,41.6519908 C30.3692851,41.2824645 30.6180511,40.757925 30.6180511,40.1754513 L30.6180511,31.9237408 C30.6180511,31.1768592 30.0087319,30.5708987 29.2577106,30.5708987 L21.0925191,30.5708987 C19.5889021,30.5708987 18.3718383,31.7828197 18.3718383,33.2781487 C18.3718383,34.7719118 19.5889021,35.9838329 21.0925191,35.9838329 L24.4949447,35.9838329 C24.8712426,35.9838329 25.1751149,36.2875961 25.1751149,36.6602539 L25.1751149,37.961425 L25.1751149,37.961425 C25.1751149,38.4812671 24.8791149,38.9337803 24.4445617,39.1592539 C23.4542213,39.7213724 22.3111574,40.043925 21.0925191,40.043925 C17.3405617,40.043925 14.2892426,37.009425 14.2892426,33.2781487 C14.2892426,29.5468724 17.3405617,26.5108066 21.0925191,26.5108066 L21.0925191,26.5108066 L29.2577106,26.5108066 C30.0087319,26.5108066 30.6180511,25.9048461 30.6180511,25.1579645 L30.6180511,22.4507145 C30.6180511,21.7038329 30.0087319,21.0978724 29.2577106,21.0978724 M45.5880936,21.0978724 C38.8241787,21.0978724 33.3403064,26.5515171 33.3403064,33.2781487 C33.3403064,40.0047803 38.8241787,45.458425 45.5880936,45.458425 C52.3520085,45.458425 57.8343064,40.0047803 57.8343064,33.2781487 C57.8343064,26.5515171 52.3520085,21.0978724 45.5880936,21.0978724" id="Fill-25" fill="#FFFFFF" mask="url(#mask-2)"></path>
                        <path d="M65.5463436,64.0052125 L65.5463436,61.471628 L64.4088504,64.0052125 L64.0311758,64.0052125 L62.8936826,61.4805178 L62.8936826,64.0052125 L62.4400262,64.0052125 L62.4400262,60.6715487 L63.0277682,60.6715487 L64.2300695,63.3562593 L65.4323708,60.6715487 L66,60.6715487 L66,64.0052125 L65.5463436,64.0052125 Z M60.8466418,61.084923 L60.8466418,64.0052125 L60.3840463,64.0052125 L60.3840463,61.084923 L59.2733702,61.084923 L59.2733702,60.6715487 L61.946144,60.6715487 L61.946144,61.084923 L60.8466418,61.084923 Z" id="Fill-26" fill="#444444" mask="url(#mask-2)"></path>
                    </g>
                    <text id="®" font-family="IntCircularPro-Light, Int Circular Pro" font-size="6" font-weight="300" fill="#444444">
                        <tspan x="149" y="37">®</tspan>
                    </text>
                </g>
            </g>
        </g>
    </g>
</svg>