<?xml version="1.0" encoding="UTF-8" standalone="no"?>
<svg width="30px" height="30px" viewBox="0 0 30 30" version="1.1" xmlns="http://www.w3.org/2000/svg" xmlns:xlink="http://www.w3.org/1999/xlink" xmlns:sketch="http://www.bohemiancoding.com/sketch/ns">
    <!-- Generator: Sketch 3.3.3 (12072) - http://www.bohemiancoding.com/sketch -->
    <title>Artboard 9</title>
    <desc>Created with Sketch.</desc>
    <defs></defs>
    <g id="Page-1" stroke="none" stroke-width="1" fill="none" fill-rule="evenodd" sketch:type="MSPage">
        <g id="Artboard-9" sketch:type="MSArtboardGroup" fill="#454545">
            <g id="googleplus" sketch:type="MSLayerGroup" transform="translate(8.000000, 9.000000)">
                <path d="M6.95251386,10.2284463 C6.95251386,10.1259697 6.94062632,10.0288502 6.91270003,9.93432287 C6.88873625,9.83858585 6.86722546,9.75442714 6.84175216,9.6745887 C6.8153354,9.59319496 6.76608701,9.50920906 6.70061118,9.42245819 C6.63607881,9.33467046 6.58267922,9.25967071 6.53531774,9.201952 C6.48852234,9.14164114 6.41681971,9.06940636 6.32568188,8.98663013 C6.2294494,8.90264423 6.15850153,8.84354304 6.10868707,8.8017229 C6.05207973,8.75834747 5.9673574,8.6978638 5.85263319,8.61266823 C5.73073871,8.53248416 5.65224319,8.47614794 5.60827816,8.45126323 C5.5605393,8.41963891 5.470911,8.3619202 5.3388272,8.27914398 C5.21410236,8.2005152 5.13636161,8.14677114 5.10051029,8.13104539 C5.0172975,8.11929427 4.8808738,8.11376434 4.70633449,8.11376434 C4.41801443,8.11376434 4.13592117,8.13242787 3.86345116,8.16508905 C3.59098115,8.2005152 3.29964202,8.25823391 3.01000112,8.34740412 C2.71186911,8.43139002 2.45524915,8.54561776 2.22391381,8.67954589 C2.00673031,8.81744866 1.82615288,8.99976373 1.683125,9.22286207 C1.53556852,9.45529218 1.47254568,9.71502635 1.47254568,10.0065577 C1.47254568,10.3347248 1.55575848,10.6272929 1.75048774,10.8858174 C1.9408771,11.1471069 2.18221307,11.3479127 2.48600581,11.4973938 C2.78960986,11.6432458 3.10736575,11.7559183 3.44474551,11.8269434 C3.77363417,11.8991782 4.11497645,11.9371965 4.45386574,11.9371965 C4.75973409,11.9371965 5.06069646,11.9071274 5.3388272,11.8480263 C5.62507167,11.7837407 5.89339047,11.6918056 6.13944372,11.5632346 C6.39379939,11.4344907 6.58777388,11.2561503 6.73608512,11.0276948 C6.87835824,10.8004491 6.95251386,10.5355306 6.95251386,10.2284463 M6.00434087,3.96372038 C6.00434087,3.67097941 5.9588663,3.36527765 5.8694267,3.03711052 C5.77979841,2.7089434 5.65658309,2.3927002 5.49430871,2.0880353 C5.33656291,1.78233354 5.10843532,1.53037585 4.82464384,1.32957006 C4.54613571,1.1325661 4.2310215,1.03164477 3.87873514,1.03164477 C3.38455303,1.03164477 3.01000112,1.20203591 2.7354555,1.53417768 C2.46317418,1.87029408 2.33109038,2.27069599 2.33109038,2.73382811 C2.33109038,2.96366607 2.36354526,3.19989801 2.41977522,3.45323819 C2.48147722,3.70519588 2.5778984,3.95836326 2.70243455,4.20928409 C2.83017846,4.4598593 2.97565933,4.69090693 3.14567005,4.88894775 C3.32020935,5.09113603 3.52324103,5.25409632 3.76684129,5.38266733 C4.00855465,5.50328905 4.26819366,5.57033952 4.54349404,5.57033952 C5.05579049,5.57033952 5.42336084,5.42448747 5.65299796,5.13053682 C5.88546545,4.83641336 6.00434087,4.44931786 6.00434087,3.96372038 M4.95653895,0.51183081 L8.42921075,0.51183081 L7.35801113,1.08659851 L6.28247161,1.08659851 C6.66117474,1.30468535 6.95251386,1.60502998 7.15705506,1.9990379 C7.36008673,2.3927002 7.46443293,2.80087858 7.46443293,3.22875736 C7.46443293,3.58699351 7.40273093,3.90738416 7.28461027,4.18422657 C7.16535747,4.46124179 7.01704623,4.68969726 6.84175216,4.8535216 C6.66985453,5.02823301 6.49097532,5.18186154 6.318889,5.32494862 C6.13944372,5.4678629 5.99396285,5.6161343 5.87659696,5.77114531 C5.74696615,5.92339136 5.69017011,6.08462354 5.69017011,6.26054462 C5.69017011,6.38669628 5.73073871,6.50852768 5.81715925,6.62932221 C5.90735362,6.75409139 6.02339867,6.86970161 6.16208666,6.9799547 C6.30511455,7.09003498 6.45625615,7.20685488 6.63117284,7.33024157 C6.79514545,7.44982643 6.96496748,7.58634672 7.13516689,7.73323563 C7.3053663,7.88029736 7.46160256,8.0391102 7.59444113,8.21105664 C7.74029938,8.38421276 7.8570992,8.59158535 7.93767032,8.82781729 C8.02371348,9.06940636 8.06767852,9.32672118 8.06767852,9.60632855 C8.06767852,10.3779274 7.7016177,11.0617385 6.95609899,11.6551697 C6.15850153,12.2876561 5.04163865,12.607874 3.6240021,12.607874 C3.31794506,12.607874 2.99660404,12.5816068 2.6737535,12.533047 C2.35392201,12.485697 2.02956194,12.4030936 1.70897568,12.2888658 C1.38555906,12.177403 1.09780507,12.0358713 0.843826792,11.8677266 C0.600981291,11.7037295 0.395496636,11.4870251 0.239449061,11.2231435 C0.0756651484,10.9540776 0,10.6613366 0,10.3385266 C0,10.044576 0.0952890273,9.71640884 0.291905198,9.35817269 C0.45719864,9.04434883 0.719101947,8.78064002 1.05516087,8.55356704 C1.39480493,8.32908621 1.77501758,8.15713977 2.20202564,8.03651805 C2.6290337,7.91831567 3.04302207,7.83173761 3.43700917,7.77522858 C3.83005282,7.72148452 4.22271909,7.68726804 4.62708421,7.67810909 C4.28366633,7.27252286 4.11497645,6.91428671 4.11497645,6.59389606 C4.11497645,6.53894233 4.11988242,6.47845865 4.13535509,6.42471459 C4.14497834,6.36682308 4.15460159,6.32362045 4.17648976,6.28404685 C4.19252851,6.24499168 4.20951071,6.18969232 4.23668224,6.12540682 C4.26611806,6.06094851 4.28366633,6.00737725 4.29045921,5.96918614 C4.0776156,5.99545333 3.89854771,6.00599477 3.73532987,6.00599477 C2.95112948,6.00599477 2.26863361,5.76838034 1.70897568,5.29194182 C1.1483743,4.81688578 0.867413185,4.22224488 0.867413185,3.50836473 C0.867413185,2.8259361 1.11742895,2.21798879 1.62085692,1.68141222 C2.11673724,1.14846466 2.7354555,0.80716394 3.47418133,0.657510054 C3.9711938,0.557798401 4.46933842,0.51183081 4.95653895,0.51183081 M13.20838,2.37023484 L13.20838,3.29960966 L11.1708931,3.29960966 L11.1708931,5.16337081 L10.1529043,5.16337081 L10.1529043,3.29960966 L8.13089005,3.29960966 L8.13089005,2.37023484 L10.1529043,2.37023484 L10.1529043,0.51183081 L11.1708931,0.51183081 L11.1708931,2.37023484 L13.20838,2.37023484" sketch:type="MSShapeGroup"></path>
            </g>
        </g>
    </g>
</svg>