<?xml version="1.0" encoding="UTF-8" standalone="no"?>
<svg width="694px" height="229px" viewBox="0 0 694 229" version="1.1" xmlns="http://www.w3.org/2000/svg" xmlns:xlink="http://www.w3.org/1999/xlink" xmlns:sketch="http://www.bohemiancoding.com/sketch/ns">
    <!-- Generator: Sketch 3.4.4 (17249) - http://www.bohemiancoding.com/sketch -->
    <title>HELLO UTAH! + GOODBYE OVERPRICED P</title>
    <desc>Created with Sketch.</desc>
    <defs></defs>
    <g id="Page-1" stroke="none" stroke-width="1" fill="none" fill-rule="evenodd" sketch:type="MSPage">
        <g id="HELLO-UTAH!-+-GOODBYE-OVERPRICED-P" sketch:type="MSLayerGroup">
            <path d="M1,64.5766073 L1,0.931841375 L10.9524344,0.931841375 L10.9524344,27.4427285 L25.149983,27.4427285 L25.149983,0.931841375 L35.1024174,0.931841375 L35.1024174,64.5766073 L25.149983,64.5766073 L25.149983,36.5281819 L10.9524344,36.5281819 L10.9524344,64.5766073 L1,64.5766073 Z M45.029012,64.5766073 L45.029012,0.931841375 L74.225964,0.931841375 L74.225964,10.0172948 L54.9814464,10.0172948 L54.9814464,26.7904395 L69.1789949,26.7904395 L69.1789949,35.8758929 L54.9814464,35.8758929 L54.9814464,55.4911539 L74.225964,55.4911539 L74.225964,64.5766073 L45.029012,64.5766073 Z M81.2281466,64.5766073 L81.2281466,0.931841375 L91.180581,0.931841375 L91.180581,55.4911539 L110.991114,55.4911539 L110.991114,64.5766073 L81.2281466,64.5766073 Z M117.332945,64.5766073 L117.332945,0.931841375 L127.28538,0.931841375 L127.28538,55.4911539 L147.095913,55.4911539 L147.095913,64.5766073 L117.332945,64.5766073 Z M152.777393,44.3556494 L152.777393,21.1527992 C152.777393,14.4745693 154.003747,9.45820673 156.456492,6.103561 C159.412364,2.03449999 164.050498,0 170.371033,0 C176.691568,0 181.329702,2.03449999 184.285574,6.103561 C186.738319,9.48926826 187.964673,14.5056308 187.964673,21.1527992 L187.964673,44.3556494 C187.964673,51.0338793 186.738319,56.0502419 184.285574,59.4048876 C181.329702,63.4739487 176.691568,65.5084486 170.371033,65.5084486 C164.050498,65.5084486 159.412364,63.4739487 156.456492,59.4048876 C154.003747,56.0502419 152.777393,51.0338793 152.777393,44.3556494 L152.777393,44.3556494 Z M162.729827,44.1692812 C162.729827,48.2383422 163.154335,51.1270215 164.003362,52.8354059 C165.292625,55.1339595 167.415161,56.283219 170.371033,56.283219 C173.326905,56.283219 175.449441,55.1339595 176.738704,52.8354059 C177.587731,51.2512677 178.012239,48.3625883 178.012239,44.1692812 L178.012239,21.3391675 C178.012239,17.1458603 177.587731,14.257181 176.738704,12.6730427 C175.449441,10.3744891 173.326905,9.22522961 170.371033,9.22522961 C167.415161,9.22522961 165.292625,10.3744891 164.003362,12.6730427 C163.154335,14.319304 162.729827,17.2079834 162.729827,21.3391675 L162.729827,44.1692812 Z M212.251648,44.076097 L212.251648,0.931841375 L222.204082,0.931841375 L222.204082,45.6602274 C222.204082,49.418673 222.75437,52.1287513 223.85496,53.7905434 C224.955551,55.4523354 226.763637,56.283219 229.279273,56.283219 C231.8578,56.283219 233.689469,55.4523354 234.774337,53.7905434 C235.859205,52.1287513 236.401631,49.418673 236.401631,45.6602274 L236.401631,0.931841375 L246.354065,0.931841375 L246.354065,44.076097 C246.354065,51.2513115 245.143434,56.5006321 242.722134,59.8242163 C239.829153,63.644785 235.379689,65.5395102 229.373609,65.5084486 C223.304637,65.5084486 218.823728,63.6137235 215.930747,59.8242163 C213.478002,56.5006321 212.251648,51.2513115 212.251648,44.076097 L212.251648,44.076097 Z M252.035546,10.0172948 L252.035546,0.931841375 L287.034154,0.931841375 L287.034154,10.0172948 L274.440315,10.0172948 L274.440315,64.5766073 L264.535049,64.5766073 L264.535049,10.0172948 L252.035546,10.0172948 Z M290.404406,64.5766073 L302.762405,0.931841375 L316.393938,0.931841375 L329.459456,64.5766073 L319.224014,64.5766073 L316.488274,50.7387629 L302.762405,50.7387629 L300.168168,64.5766073 L290.404406,64.5766073 Z M304.318947,41.6533094 L314.837396,41.6533094 L309.554587,13.1389634 L304.318947,41.6533094 Z M336.461639,64.5766073 L336.461639,0.931841375 L346.414073,0.931841375 L346.414073,27.4427285 L360.611622,27.4427285 L360.611622,0.931841375 L370.564056,0.931841375 L370.564056,64.5766073 L360.611622,64.5766073 L360.611622,36.5281819 L346.414073,36.5281819 L346.414073,64.5766073 L336.461639,64.5766073 Z M380.72649,0.931841375 L391.339276,0.931841375 L389.028047,45.3806749 L383.037719,45.3806749 L380.72649,0.931841375 Z M381.386841,64.5766073 L381.386841,54.3729442 L390.773261,54.3729442 L390.773261,64.5766073 L381.386841,64.5766073 Z" id="HELLO-UTAH!" fill="#FF4D00" sketch:type="MSShapeGroup"></path>
            <path d="M0,128.094569 L0,110.529359 C0,105.435267 0.259421051,101.715704 0.778270936,99.3705583 C1.29712082,97.0254124 2.29549881,94.8589029 3.77343484,92.8709647 C6.66641602,88.9261498 11.210215,86.9693025 17.4049682,87.000364 C24.8889847,87.000364 29.9987933,89.9822266 32.7345473,95.9460412 C34.1495924,98.7415793 34.8571044,102.965885 34.8571044,108.619084 L24.90467,108.619084 C24.90467,104.239408 24.3150767,101.078944 23.1358724,99.1375979 C21.9566681,97.196252 20.0149408,96.2255936 17.3106323,96.2255936 C14.4805421,96.2255936 12.5152311,97.312731 11.4146404,99.4870384 C10.4398315,101.257546 9.9524344,104.301531 9.9524344,108.619084 L9.9524344,128.094569 C9.9524344,132.878045 10.3140516,136.341354 11.0372969,138.4846 C12.2007785,141.652876 14.4490942,143.252522 17.7823117,143.283583 C20.3608384,143.283583 22.2475369,142.281864 23.442464,140.278395 C24.637391,138.274926 25.2348455,135.06787 25.2348455,130.657132 L25.2348455,128.094569 L17.0276247,128.094569 L17.0276247,119.987549 L35.1872799,119.987549 L35.1872799,151.576971 L30.0459749,151.576971 L28.2064254,146.125699 C25.1876625,150.381129 21.1627056,152.508813 16.1314339,152.508813 C13.1755619,152.508813 10.5341839,151.864295 8.20722078,150.575242 C5.88025766,149.286188 4.08789403,147.46135 2.83007613,145.100674 C0.943349277,141.466474 0,135.797829 0,128.094569 L0,128.094569 Z M43.2529969,131.356013 L43.2529969,108.153163 C43.2529969,101.474933 44.4793509,96.4585707 46.9320958,93.103925 C49.8879679,89.034864 54.5261019,87.000364 60.8466368,87.000364 C67.1671718,87.000364 71.8053057,89.034864 74.7611778,93.103925 C77.2139227,96.4896323 78.4402768,101.505995 78.4402768,108.153163 L78.4402768,131.356013 C78.4402768,138.034243 77.2139227,143.050606 74.7611778,146.405252 C71.8053057,150.474313 67.1671718,152.508813 60.8466368,152.508813 C54.5261019,152.508813 49.8879679,150.474313 46.9320958,146.405252 C44.4793509,143.050606 43.2529969,138.034243 43.2529969,131.356013 L43.2529969,131.356013 Z M53.2054313,131.169645 C53.2054313,135.238706 53.6299384,138.127386 54.4789655,139.83577 C55.7682289,142.134324 57.8907648,143.283583 60.8466368,143.283583 C63.8025089,143.283583 65.9250448,142.134324 67.2143081,139.83577 C68.0633352,138.251632 68.4878424,135.362952 68.4878424,131.169645 L68.4878424,108.339531 C68.4878424,104.146224 68.0633352,101.257545 67.2143081,99.6734067 C65.9250448,97.3748532 63.8025089,96.2255936 60.8466368,96.2255936 C57.8907648,96.2255936 55.7682289,97.3748532 54.4789655,99.6734067 C53.6299384,101.319668 53.2054313,104.208347 53.2054313,108.339531 L53.2054313,131.169645 Z M86.8833372,131.356013 L86.8833372,108.153163 C86.8833372,101.474933 88.1096913,96.4585707 90.5624362,93.103925 C93.5183083,89.034864 98.1564422,87.000364 104.476977,87.000364 C110.797512,87.000364 115.435646,89.034864 118.391518,93.103925 C120.844263,96.4896323 122.070617,101.505995 122.070617,108.153163 L122.070617,131.356013 C122.070617,138.034243 120.844263,143.050606 118.391518,146.405252 C115.435646,150.474313 110.797512,152.508813 104.476977,152.508813 C98.1564422,152.508813 93.5183083,150.474313 90.5624362,146.405252 C88.1096913,143.050606 86.8833372,138.034243 86.8833372,131.356013 L86.8833372,131.356013 Z M96.8357716,131.169645 C96.8357716,135.238706 97.2602788,138.127386 98.1093059,139.83577 C99.3985692,142.134324 101.521105,143.283583 104.476977,143.283583 C107.432849,143.283583 109.555385,142.134324 110.844648,139.83577 C111.693676,138.251632 112.118183,135.362952 112.118183,131.169645 L112.118183,108.339531 C112.118183,104.146224 111.693676,101.257545 110.844648,99.6734067 C109.555385,97.3748532 107.432849,96.2255936 104.476977,96.2255936 C101.521105,96.2255936 99.3985692,97.3748532 98.1093059,99.6734067 C97.2602788,101.319668 96.8357716,104.208347 96.8357716,108.339531 L96.8357716,131.169645 Z M131.174029,151.576971 L131.174029,87.9322054 L146.928119,87.9322054 C153.248654,87.9322054 157.941817,89.5706767 161.007748,92.8476686 C164.073679,96.1246605 165.606622,101.133258 165.606622,107.873611 L165.606622,131.635566 C165.606622,138.375919 164.073679,143.384516 161.007748,146.661508 C157.941817,149.9385 153.248654,151.576971 146.928119,151.576971 L131.174029,151.576971 Z M141.126463,142.491518 L146.079096,142.491518 C149.632432,142.491518 152.116585,141.474268 153.53163,139.439737 C154.946675,137.405207 155.654187,133.918602 155.654187,128.979818 L155.654187,110.529359 C155.654187,105.49739 154.938814,101.987489 153.508046,99.9995512 C152.077278,98.011613 149.600986,97.0176588 146.079096,97.0176588 L141.126463,97.0176588 L141.126463,142.491518 Z M174.615697,151.576971 L174.615697,87.9322054 L189.520765,87.9322054 C195.589736,87.9322054 200.243593,89.3299535 203.482474,92.1254916 C206.721355,94.9210297 208.340771,98.8968464 208.340771,104.053061 C208.340771,111.383583 204.803211,116.120396 197.727986,118.263642 C202.036012,119.475042 205.141203,121.276584 207.043653,123.668322 C208.946103,126.06006 209.897313,129.352534 209.897313,133.545841 C209.897313,139.19904 208.207146,143.617477 204.82676,146.801284 C201.446374,149.985092 196.753212,151.576971 190.747131,151.576971 L174.615697,151.576971 Z M184.568132,142.491518 L189.615101,142.491518 C192.759646,142.491518 195.204492,141.714991 196.949715,140.161914 C198.694937,138.608838 199.567535,136.403502 199.567535,133.545841 C199.567535,130.377564 198.537712,127.822791 196.478035,125.881445 C194.418359,123.940099 191.643339,122.969441 188.152895,122.969441 L184.568132,122.969441 L184.568132,142.491518 Z M184.568132,113.883988 L188.152895,113.883988 C191.171658,113.883988 193.600782,113.0764 195.440341,111.4612 C197.2799,109.846 198.199665,107.671726 198.199665,104.93831 C198.199665,102.453388 197.397818,100.48101 195.7941,99.0211177 C194.253273,97.6854718 191.76912,97.0176588 188.341567,97.0176588 L184.568132,97.0176588 L184.568132,113.883988 Z M215.368794,87.9322054 L226.358923,87.9322054 L234.990655,114.862421 L243.858227,87.9322054 L254.659684,87.9322054 L239.801784,126.789991 L239.801784,151.576971 L229.84935,151.576971 L229.84935,126.789991 L215.368794,87.9322054 Z M261.121691,151.576971 L261.121691,87.9322054 L290.318643,87.9322054 L290.318643,97.0176588 L271.074125,97.0176588 L271.074125,113.790804 L285.271674,113.790804 L285.271674,122.876257 L271.074125,122.876257 L271.074125,142.491518 L290.318643,142.491518 L290.318643,151.576971 L261.121691,151.576971 Z M311.214039,131.356013 L311.214039,108.153163 C311.214039,101.474933 312.440393,96.4585707 314.893138,93.103925 C317.84901,89.034864 322.487144,87.000364 328.807679,87.000364 C335.128213,87.000364 339.766347,89.034864 342.72222,93.103925 C345.174964,96.4896323 346.401318,101.505995 346.401318,108.153163 L346.401318,131.356013 C346.401318,138.034243 345.174964,143.050606 342.72222,146.405252 C339.766347,150.474313 335.128213,152.508813 328.807679,152.508813 C322.487144,152.508813 317.84901,150.474313 314.893138,146.405252 C312.440393,143.050606 311.214039,138.034243 311.214039,131.356013 L311.214039,131.356013 Z M321.166473,131.169645 C321.166473,135.238706 321.59098,138.127386 322.440007,139.83577 C323.729271,142.134324 325.851806,143.283583 328.807679,143.283583 C331.763551,143.283583 333.886086,142.134324 335.17535,139.83577 C336.024377,138.251632 336.448884,135.362952 336.448884,131.169645 L336.448884,108.339531 C336.448884,104.146224 336.024377,101.257545 335.17535,99.6734067 C333.886086,97.3748532 331.763551,96.2255936 328.807679,96.2255936 C325.851806,96.2255936 323.729271,97.3748532 322.440007,99.6734067 C321.59098,101.319668 321.166473,104.208347 321.166473,108.339531 L321.166473,131.169645 Z M352.250142,87.9322054 L362.57992,87.9322054 L372.249347,136.294773 L380.739576,87.9322054 L390.880682,87.9322054 L378.428347,151.576971 L366.070348,151.576971 L352.250142,87.9322054 Z M397.295521,151.576971 L397.295521,87.9322054 L426.492473,87.9322054 L426.492473,97.0176588 L407.247955,97.0176588 L407.247955,113.790804 L421.445504,113.790804 L421.445504,122.876257 L407.247955,122.876257 L407.247955,142.491518 L426.492473,142.491518 L426.492473,151.576971 L397.295521,151.576971 Z M433.284656,151.576971 L433.284656,87.9322054 L448.850074,87.9322054 C454.384473,87.9322054 458.645267,89.2057092 461.632585,91.752755 C465.500375,94.9831546 467.418519,99.7820897 467.387073,106.149704 C467.387073,114.16358 464.494135,119.661389 458.708173,122.643297 L468.188928,151.576971 L457.764814,151.576971 L449.227418,125.438821 L443.23709,125.438821 L443.23709,151.576971 L433.284656,151.576971 Z M443.23709,116.353367 L446.916189,116.353367 C450.721088,116.353367 453.299576,115.685554 454.65173,114.349908 C456.255448,112.76577 457.057295,110.187701 457.057295,106.615625 C457.057295,103.105672 456.255448,100.574194 454.65173,99.0211177 C453.299576,97.6854718 450.721088,97.0176588 446.916189,97.0176588 L443.23709,97.0176588 L443.23709,116.353367 Z M475.68863,151.576971 L475.68863,87.9322054 L492.244575,87.9322054 C498.439328,87.9322054 502.93596,89.2988924 505.734605,92.0323074 C509.162158,95.2005839 510.87591,100.170355 510.87591,106.941769 C510.87591,113.619999 509.162158,118.543179 505.734605,121.711455 C502.904514,124.44487 498.407883,125.811557 492.244575,125.811557 L485.641064,125.811557 L485.641064,151.576971 L475.68863,151.576971 Z M485.641064,116.726104 L490.027682,116.726104 C494.021254,116.726104 496.772689,116.011699 498.282071,114.582869 C499.791452,113.154038 500.546132,110.568204 500.546132,106.825289 C500.546132,103.082374 499.791452,100.512071 498.282071,99.1143019 C496.772689,97.7165328 494.021254,97.0176588 490.027682,97.0176588 L485.641064,97.0176588 L485.641064,116.726104 Z M517.668092,151.576971 L517.668092,87.9322054 L533.233511,87.9322054 C538.76791,87.9322054 543.028704,89.2057092 546.016022,91.752755 C549.883812,94.9831546 551.801955,99.7820897 551.77051,106.149704 C551.77051,114.16358 548.877572,119.661389 543.09161,122.643297 L552.572365,151.576971 L542.148251,151.576971 L533.610855,125.438821 L527.620527,125.438821 L527.620527,151.576971 L517.668092,151.576971 Z M527.620527,116.353367 L531.299626,116.353367 C535.104525,116.353367 537.683013,115.685554 539.035167,114.349908 C540.638885,112.76577 541.440732,110.187701 541.440732,106.615625 C541.440732,103.105672 540.638885,100.574194 539.035167,99.0211177 C537.683013,97.6854718 535.104525,97.0176588 531.299626,97.0176588 L527.620527,97.0176588 L527.620527,116.353367 Z M560.072066,151.576971 L560.072066,87.9322054 L570.024501,87.9322054 L570.024501,151.576971 L560.072066,151.576971 Z M579.17508,128.374121 L579.17508,110.529359 C579.17508,105.49739 579.434501,101.808888 579.953351,99.4637424 C580.472201,97.1185965 581.470579,94.9210259 582.948515,92.8709647 C585.841496,88.9261498 590.385295,86.9693025 596.580048,87.000364 C602.177338,87.000364 606.4853,88.7475491 609.504063,92.2419717 C612.522826,95.7363944 614.032185,100.729461 614.032185,107.221322 L614.032185,108.619084 L604.07975,108.619084 L604.07975,107.034954 C604.07975,99.8597391 601.579875,96.2566552 596.580048,96.2255936 C593.749958,96.2255936 591.784647,97.2816699 590.684057,99.3938543 C589.646357,101.102239 589.127515,104.146223 589.127515,108.5259 L589.127515,129.725291 C589.127515,134.104967 589.489132,137.257666 590.212377,139.183481 C591.250077,141.916896 593.404058,143.283583 596.674384,143.283583 C600.416393,143.283583 602.759043,141.093778 603.702407,136.714101 C604.016861,135.502702 604.221254,133.017816 604.31559,129.25937 L614.36236,129.25937 L614.36236,131.356013 C614.36236,138.282736 612.860863,143.539821 609.857822,147.127429 C606.854782,150.715036 602.460347,152.508813 596.674384,152.508813 C589.976504,152.508813 585.181145,150.163702 582.288164,145.47341 C581.061792,143.516534 580.236361,141.357789 579.811847,138.997113 C579.387334,136.636436 579.17508,133.095474 579.17508,128.374121 L579.17508,128.374121 Z M622.711085,151.576971 L622.711085,87.9322054 L651.908037,87.9322054 L651.908037,97.0176588 L632.663519,97.0176588 L632.663519,113.790804 L646.861068,113.790804 L646.861068,122.876257 L632.663519,122.876257 L632.663519,142.491518 L651.908037,142.491518 L651.908037,151.576971 L622.711085,151.576971 Z M658.70022,151.576971 L658.70022,87.9322054 L674.45431,87.9322054 C680.774845,87.9322054 685.468008,89.5706767 688.533939,92.8476686 C691.59987,96.1246605 693.132812,101.133258 693.132812,107.873611 L693.132812,131.635566 C693.132812,138.375919 691.59987,143.384516 688.533939,146.661508 C685.468008,149.9385 680.774845,151.576971 674.45431,151.576971 L658.70022,151.576971 Z M668.652654,142.491518 L673.605287,142.491518 C677.158623,142.491518 679.642776,141.474268 681.057821,139.439737 C682.472866,137.405207 683.180378,133.918602 683.180378,128.979818 L683.180378,110.529359 C683.180378,105.49739 682.465005,101.987489 681.034237,99.9995512 C679.603469,98.011613 677.127177,97.0176588 673.605287,97.0176588 L668.652654,97.0176588 L668.652654,142.491518 Z M0.660351097,227.291109 L0.660351097,163.646343 L17.2162965,163.646343 C23.4110496,163.646343 27.9076812,165.01303 30.706326,167.746445 C34.1338798,170.914721 35.847631,175.884492 35.847631,182.655907 C35.847631,189.334137 34.1338798,194.257316 30.706326,197.425593 C27.8762357,200.159008 23.3796042,201.525695 17.2162965,201.525695 L10.6127855,201.525695 L10.6127855,227.291109 L0.660351097,227.291109 Z M10.6127855,192.440241 L14.9994035,192.440241 C18.9929753,192.440241 21.7444107,191.725837 23.2537922,190.297006 C24.7631737,188.868176 25.5178531,186.282342 25.5178531,182.539427 C25.5178531,178.796512 24.7631737,176.226208 23.2537922,174.828439 C21.7444107,173.43067 18.9929753,172.731796 14.9994035,172.731796 L10.6127855,172.731796 L10.6127855,192.440241 Z M41.9794626,207.070151 L41.9794626,183.867301 C41.9794626,177.189071 43.2058167,172.172708 45.6585616,168.818062 C48.6144337,164.749001 53.2525676,162.714501 59.5731026,162.714501 C65.8936375,162.714501 70.5317715,164.749001 73.4876435,168.818062 C75.9403885,172.20377 77.1667425,177.220132 77.1667425,183.867301 L77.1667425,207.070151 C77.1667425,213.748381 75.9403885,218.764743 73.4876435,222.119389 C70.5317715,226.18845 65.8936375,228.22295 59.5731026,228.22295 C53.2525676,228.22295 48.6144337,226.18845 45.6585616,222.119389 C43.2058167,218.764743 41.9794626,213.748381 41.9794626,207.070151 L41.9794626,207.070151 Z M51.931897,206.883783 C51.931897,210.952844 52.3564042,213.841523 53.2054313,215.549907 C54.4946946,217.848461 56.6172305,218.99772 59.5731026,218.99772 C62.5289746,218.99772 64.6515105,217.848461 65.9407739,215.549907 C66.7898009,213.965769 67.2143081,211.07709 67.2143081,206.883783 L67.2143081,184.053669 C67.2143081,179.860362 66.7898009,176.971682 65.9407739,175.387544 C64.6515105,173.088991 62.5289746,171.939731 59.5731026,171.939731 C56.6172305,171.939731 54.4946946,173.088991 53.2054313,175.387544 C52.3564042,177.033805 51.931897,179.922485 51.931897,184.053669 L51.931897,206.883783 Z M83.2985741,163.646343 L92.9680009,163.646343 L100.279031,204.693955 L108.014572,163.646343 L116.646305,163.646343 L125.136533,204.693955 L131.59854,163.646343 L140.984959,163.646343 L130.041998,227.291109 L120.797083,227.291109 L112.448358,184.146853 L104.665649,227.291109 L95.3735656,227.291109 L83.2985741,163.646343 Z M147.777142,227.291109 L147.777142,163.646343 L176.974094,163.646343 L176.974094,172.731796 L157.729576,172.731796 L157.729576,189.504941 L171.927125,189.504941 L171.927125,198.590394 L157.729576,198.590394 L157.729576,218.205655 L176.974094,218.205655 L176.974094,227.291109 L147.777142,227.291109 Z M183.766277,227.291109 L183.766277,163.646343 L199.331696,163.646343 C204.866094,163.646343 209.126889,164.919847 212.114206,167.466892 C215.981996,170.697292 217.90014,175.496227 217.868694,181.863842 C217.868694,189.877718 214.975756,195.375527 209.189794,198.357434 L218.670549,227.291109 L208.246435,227.291109 L199.709039,201.152958 L193.718711,201.152958 L193.718711,227.291109 L183.766277,227.291109 Z M193.718711,192.067505 L197.39781,192.067505 C201.202709,192.067505 203.781197,191.399692 205.133352,190.064046 C206.737069,188.479908 207.538916,185.901839 207.538916,182.329762 C207.538916,178.819809 206.737069,176.288332 205.133352,174.735255 C203.781197,173.399609 201.202709,172.731796 197.39781,172.731796 L193.718711,172.731796 L193.718711,192.067505 Z M240.933815,227.291109 L240.933815,163.646343 L255.838882,163.646343 C261.907854,163.646343 266.56171,165.044091 269.800591,167.839629 C273.039472,170.635167 274.658889,174.610984 274.658889,179.767199 C274.658889,187.097721 271.121329,191.834534 264.046103,193.97778 C268.354129,195.189179 271.459321,196.990721 273.36177,199.38246 C275.26422,201.774198 276.21543,205.066671 276.21543,209.259978 C276.21543,214.913177 274.525263,219.331614 271.144877,222.515422 C267.764492,225.699229 263.071329,227.291109 257.065249,227.291109 L240.933815,227.291109 Z M250.886249,218.205655 L255.933218,218.205655 C259.077763,218.205655 261.52261,217.429129 263.267832,215.876052 C265.013054,214.322975 265.885653,212.117639 265.885653,209.259978 C265.885653,206.091702 264.85583,203.536929 262.796153,201.595583 C260.736476,199.654237 257.961457,198.683579 254.471012,198.683579 L250.886249,198.683579 L250.886249,218.205655 Z M250.886249,189.598125 L254.471012,189.598125 C257.489775,189.598125 259.918899,188.790537 261.758458,187.175338 C263.598017,185.560138 264.517782,183.385863 264.517782,180.652448 C264.517782,178.167525 263.715936,176.195147 262.112218,174.735255 C260.571391,173.399609 258.087238,172.731796 254.659684,172.731796 L250.886249,172.731796 L250.886249,189.598125 Z M284.941498,227.291109 L284.941498,163.646343 L294.893933,163.646343 L294.893933,227.291109 L284.941498,227.291109 Z M304.704863,227.291109 L304.704863,163.646343 L314.657298,163.646343 L314.657298,218.205655 L334.467831,218.205655 L334.467831,227.291109 L304.704863,227.291109 Z M340.599662,227.291109 L340.599662,163.646343 L350.552097,163.646343 L350.552097,218.205655 L370.36263,218.205655 L370.36263,227.291109 L340.599662,227.291109 Z M373.522881,210.285004 L383.097972,207.536072 C384.324345,215.177209 387.64179,218.99772 393.050407,218.99772 C395.251588,218.99772 397.020368,218.329908 398.356799,216.994262 C399.693231,215.658616 400.361437,213.903665 400.361437,211.729358 C400.361437,209.772481 399.716815,207.947643 398.427551,206.25479 C397.138288,204.561936 394.606967,202.255652 390.833514,199.335867 C386.399706,195.888037 383.632548,193.674936 382.531957,192.696498 C381.431366,191.718059 380.267902,190.467851 379.04153,188.945836 C376.651676,185.901806 375.456767,182.360844 375.456767,178.322844 C375.456767,173.756799 377.036877,170.01394 380.197144,167.094156 C383.357412,164.174372 387.374507,162.714501 392.248552,162.714501 C401.524959,162.714501 407.546672,168.025944 410.313871,178.648989 L400.73878,181.397921 C399.197953,175.09243 396.367905,171.939731 392.248552,171.939731 C390.39327,171.939731 388.852467,172.560952 387.626094,173.803414 C386.399722,175.045875 385.786545,176.583398 385.786545,178.416029 C385.786545,180.776705 386.682726,182.919919 388.475117,184.845734 C389.575708,186.057134 392.421478,188.371184 397.012513,191.787952 C401.572103,195.360029 404.748046,198.217647 406.540436,200.360893 C409.307636,203.7466 410.691215,207.629234 410.691215,212.00891 C410.691215,216.85451 409.071798,220.768204 405.832917,223.750111 C402.594036,226.732019 398.333242,228.22295 393.050407,228.22295 C382.013055,228.22295 375.503945,222.243694 373.522881,210.285004 L373.522881,210.285004 Z M416.398535,227.291109 L416.398535,217.087446 L425.737786,217.087446 L425.737786,227.291109 L416.398535,227.291109 Z" id="GOODBYE-OVERPRICED-P" fill="#00BED6" sketch:type="MSShapeGroup"></path>
        </g>
    </g>
</svg>