<?xml version="1.0" encoding="UTF-8" standalone="no"?>
<svg width="30px" height="30px" viewBox="0 0 30 30" version="1.1" xmlns="http://www.w3.org/2000/svg" xmlns:xlink="http://www.w3.org/1999/xlink" xmlns:sketch="http://www.bohemiancoding.com/sketch/ns">
    <!-- Generator: Sketch 3.3.3 (12072) - http://www.bohemiancoding.com/sketch -->
    <title>Artboard 9</title>
    <desc>Created with Sketch.</desc>
    <defs></defs>
    <g id="Page-1" stroke="none" stroke-width="1" fill="none" fill-rule="evenodd" sketch:type="MSPage">
        <g id="Artboard-9" sketch:type="MSArtboardGroup">
            <g id="Rectangle-190-+-linkedin" sketch:type="MSLayerGroup">
                <rect id="Rectangle-190" sketch:type="MSShapeGroup" x="0" y="0" width="30" height="30"></rect>
                <path d="M22.0781198,15.9952893 L22.0781198,21.0406463 L18.846448,21.0406463 L18.846448,16.3331541 C18.846448,15.1505298 18.3788108,14.3435924 17.2091795,14.3435924 C16.316124,14.3435924 15.784728,14.8875294 15.5508018,15.4135301 C15.4657181,15.601666 15.4437471,15.8634967 15.4437471,16.126887 L15.4437471,21.0406463 L12.2112136,21.0406463 C12.2112136,21.0406463 12.2549402,13.0675824 12.2112136,12.241539 L15.4437471,12.241539 L15.4437471,13.4886949 C15.4372851,13.498053 15.4288844,13.5081909 15.4226377,13.517354 L15.4437471,13.517354 L15.4437471,13.4886949 C15.8732581,12.8901693 16.6400882,12.0348819 18.3568399,12.0348819 C20.4839318,12.0348819 22.0781198,13.2925657 22.0781198,15.9952893 L22.0781198,15.9952893 Z M8.82940674,8 C7.72331895,8 7,8.65662361 7,9.5199043 C7,10.3646638 7.70264038,11.0411733 8.7865418,11.0411733 L8.80829737,11.0411733 C9.93549453,11.0411733 10.6366271,10.3646638 10.6366271,9.5199043 C10.6153023,8.65662361 9.93549453,8 8.82940674,8 L8.82940674,8 Z M7.19213833,21.0406463 L10.4238102,21.0406463 L10.4238102,12.241539 L7.19213833,12.241539 L7.19213833,21.0406463 Z" id="linkedin" fill="#454545" sketch:type="MSShapeGroup"></path>
            </g>
        </g>
    </g>
</svg>