<?xml version="1.0" encoding="UTF-8" standalone="no"?>
<svg width="35px" height="35px" viewBox="0 0 35 35" version="1.1" xmlns="http://www.w3.org/2000/svg" xmlns:xlink="http://www.w3.org/1999/xlink" xmlns:sketch="http://www.bohemiancoding.com/sketch/ns">
    <!-- Generator: Sketch 3.3.3 (12072) - http://www.bohemiancoding.com/sketch -->
    <title>Oval 34 + linkedin</title>
    <desc>Created with Sketch.</desc>
    <defs></defs>
    <g id="Page-1" stroke="none" stroke-width="1" fill="none" fill-rule="evenodd" sketch:type="MSPage">
        <g id="Desktop-HD-Copy-2" sketch:type="MSArtboardGroup" transform="translate(-965.000000, -4282.000000)">
            <g id="Oval-34-+-linkedin" sketch:type="MSLayerGroup" transform="translate(965.000000, 4282.000000)">
                <circle id="Oval-34" fill="#D9D9D9" sketch:type="MSShapeGroup" cx="17.5" cy="17.5" r="17.5"></circle>
                <path d="M26.3906003,19.2214999 L26.3906003,25.0406463 L22.6632978,25.0406463 L22.6632978,19.6111819 C22.6632978,18.2471824 22.1239407,17.3164878 20.774927,17.3164878 C19.7449066,17.3164878 19.1320122,17.9438466 18.8622094,18.5505183 C18.7640767,18.767508 18.7387362,19.0694947 18.7387362,19.3732802 L18.7387362,25.0406463 L15.0104399,25.0406463 C15.0104399,25.0406463 15.0608726,15.8447805 15.0104399,14.8920495 L18.7387362,14.8920495 L18.7387362,16.3304776 C18.731283,16.3412709 18.721594,16.3529636 18.7143893,16.363532 L18.7387362,16.363532 L18.7387362,16.3304776 C19.2341198,15.640158 20.1185561,14.6536982 22.0986001,14.6536982 C24.551917,14.6536982 26.3906003,16.1042686 26.3906003,19.2214999 L26.3906003,19.2214999 Z M11.1099767,10 C9.83425194,10 9,10.7573278 9,11.7530069 C9,12.7273244 9.81040197,13.5075878 11.0605377,13.5075878 L11.0856298,13.5075878 C12.3857014,13.5075878 13.1943644,12.7273244 13.1943644,11.7530069 C13.1697691,10.7573278 12.3857014,10 11.1099767,10 L11.1099767,10 Z M9.22160594,25.0406463 L12.9489085,25.0406463 L12.9489085,14.8920495 L9.22160594,14.8920495 L9.22160594,25.0406463 Z" id="linkedin" fill="#454545" sketch:type="MSShapeGroup"></path>
            </g>
        </g>
    </g>
</svg>