<?xml version="1.0" encoding="UTF-8" standalone="no"?>
<svg width="33px" height="299px" viewBox="0 0 33 299" version="1.1" xmlns="http://www.w3.org/2000/svg" xmlns:xlink="http://www.w3.org/1999/xlink" xmlns:sketch="http://www.bohemiancoding.com/sketch/ns">
    <!-- Generator: Sketch 3.4.4 (17249) - http://www.bohemiancoding.com/sketch -->
    <title>MORE CHOICE</title>
    <desc>Created with Sketch.</desc>
    <defs></defs>
    <g id="Page-1" stroke="none" stroke-width="1" fill="none" fill-rule="evenodd" sketch:type="MSPage">
        <g id="UTAH-PAGE" sketch:type="MSArtboardGroup" transform="translate(-700.000000, -2529.000000)" fill="#00BFD7">
            <path d="M598.808,2695 L598.808,2664.513 L593.175,2664.513 L582.339,2689.324 L571.589,2664.513 L565.87,2664.513 L565.87,2695 L570.041,2695 L570.041,2671.264 L580.361,2695 L584.231,2695 L594.637,2671.264 L594.637,2695 L598.808,2695 Z M608.913,2679.735 C608.913,2671.78 614.245,2667.738 619.921,2667.738 C625.597,2667.738 630.929,2671.78 630.929,2679.735 C630.929,2687.69 625.597,2691.775 619.921,2691.775 C614.245,2691.775 608.913,2687.69 608.913,2679.735 L608.913,2679.735 Z M604.613,2679.735 C604.613,2689.926 612.224,2695.645 619.921,2695.645 C627.618,2695.645 635.229,2689.926 635.229,2679.735 C635.229,2669.587 627.618,2663.868 619.921,2663.868 C612.224,2663.868 604.613,2669.587 604.613,2679.735 L604.613,2679.735 Z M656.815,2695 L661.717,2695 L654.45,2682.229 C659.094,2681.369 661.846,2678.015 661.846,2673.586 C661.846,2668.555 658.277,2664.513 652.515,2664.513 L641.034,2664.513 L641.034,2695 L645.291,2695 L645.291,2682.53 L649.849,2682.53 L656.815,2695 Z M645.291,2678.746 L645.291,2668.297 L651.741,2668.297 C655.181,2668.297 657.503,2670.318 657.503,2673.586 C657.503,2676.725 655.181,2678.746 651.741,2678.746 L645.291,2678.746 Z M686.184,2695 L686.184,2691.087 L671.865,2691.087 L671.865,2681.756 L684.851,2681.756 L684.851,2677.8 L671.865,2677.8 L671.865,2668.426 L686.184,2668.426 L686.184,2664.513 L667.651,2664.513 L667.651,2695 L686.184,2695 Z M716.585,2695.645 C723.594,2695.645 728.453,2691.603 730.044,2685.841 L726.303,2684.465 C725.013,2688.636 721.788,2691.775 716.585,2691.775 C711.038,2691.775 705.749,2687.69 705.749,2679.735 C705.749,2671.78 711.038,2667.738 716.585,2667.738 C721.616,2667.738 724.927,2670.275 726.088,2674.919 L730.001,2673.543 C728.367,2667.652 723.594,2663.868 716.585,2663.868 C708.974,2663.868 701.449,2669.587 701.449,2679.735 C701.449,2689.926 708.716,2695.645 716.585,2695.645 L716.585,2695.645 Z M759.628,2695 L759.628,2664.513 L755.414,2664.513 L755.414,2677.542 L739.848,2677.542 L739.848,2664.513 L735.634,2664.513 L735.634,2695 L739.848,2695 L739.848,2681.455 L755.414,2681.455 L755.414,2695 L759.628,2695 Z M769.733,2679.735 C769.733,2671.78 775.065,2667.738 780.741,2667.738 C786.417,2667.738 791.749,2671.78 791.749,2679.735 C791.749,2687.69 786.417,2691.775 780.741,2691.775 C775.065,2691.775 769.733,2687.69 769.733,2679.735 L769.733,2679.735 Z M765.433,2679.735 C765.433,2689.926 773.044,2695.645 780.741,2695.645 C788.438,2695.645 796.049,2689.926 796.049,2679.735 C796.049,2669.587 788.438,2663.868 780.741,2663.868 C773.044,2663.868 765.433,2669.587 765.433,2679.735 L765.433,2679.735 Z M806.154,2695 L806.154,2664.513 L801.854,2664.513 L801.854,2695 L806.154,2695 Z M827.095,2695.645 C834.104,2695.645 838.963,2691.603 840.554,2685.841 L836.813,2684.465 C835.523,2688.636 832.298,2691.775 827.095,2691.775 C821.548,2691.775 816.259,2687.69 816.259,2679.735 C816.259,2671.78 821.548,2667.738 827.095,2667.738 C832.126,2667.738 835.437,2670.275 836.598,2674.919 L840.511,2673.543 C838.877,2667.652 834.104,2663.868 827.095,2663.868 C819.484,2663.868 811.959,2669.587 811.959,2679.735 C811.959,2689.926 819.226,2695.645 827.095,2695.645 L827.095,2695.645 Z M864.677,2695 L864.677,2691.087 L850.358,2691.087 L850.358,2681.756 L863.344,2681.756 L863.344,2677.8 L850.358,2677.8 L850.358,2668.426 L864.677,2668.426 L864.677,2664.513 L846.144,2664.513 L846.144,2695 L864.677,2695 Z" id="MORE-CHOICE" sketch:type="MSShapeGroup" transform="translate(716.563500, 2679.756500) rotate(90.000000) translate(-716.563500, -2679.756500) "></path>
        </g>
    </g>
</svg>