<?xml version="1.0" encoding="UTF-8" standalone="no"?>
<svg width="30px" height="30px" viewBox="0 0 30 30" version="1.1" xmlns="http://www.w3.org/2000/svg" xmlns:xlink="http://www.w3.org/1999/xlink" xmlns:sketch="http://www.bohemiancoding.com/sketch/ns">
    <!-- Generator: Sketch 3.3.3 (12072) - http://www.bohemiancoding.com/sketch -->
    <title>Artboard 9</title>
    <desc>Created with Sketch.</desc>
    <defs></defs>
    <g id="Page-1" stroke="none" stroke-width="1" fill="none" fill-rule="evenodd" sketch:type="MSPage">
        <g id="Artboard-9" sketch:type="MSArtboardGroup" fill="#454545">
            <path d="M22.5690211,10.7795225 C22.0121574,11.0013409 21.4133397,11.1516174 20.7853272,11.2190766 C21.4265314,10.8736155 21.9189503,10.3265544 22.1509948,9.6743191 C21.5506633,9.99431292 20.8861033,10.2268236 20.1787242,10.3518273 C19.6121289,9.80923751 18.8048388,9.47038622 17.9116943,9.47038622 C16.1965541,9.47038622 14.8058005,10.7204228 14.8058005,12.2620699 C14.8058005,12.4809721 14.8332653,12.6940421 14.8862484,12.8983638 C12.3052122,12.7821084 10.0167728,11.6704896 8.48501918,9.98128765 C8.21750835,10.3936248 8.06439787,10.8734211 8.06439787,11.3849058 C8.06439787,12.3534411 8.61282751,13.208054 9.44628486,13.7088463 C8.93699787,13.6942658 8.45798696,13.5686789 8.03952823,13.3596914 C8.03909571,13.3711615 8.03909571,13.3828259 8.03909571,13.3946847 C8.03909571,14.7473682 9.10957155,15.8759005 10.5303849,16.1321288 C10.2697943,16.1962831 9.99536327,16.2301099 9.71228188,16.2301099 C9.51202721,16.2301099 9.3176115,16.2128077 9.12795346,16.1801473 C9.52305636,17.2892389 10.6700874,18.0966109 12.0290511,18.1189677 C10.9661443,18.8680177 9.62707633,19.3141816 8.17187797,19.3141816 C7.92123524,19.3141816 7.67405264,19.3007675 7.43097893,19.2749114 C8.80551316,20.0675085 10.4380429,20.5296138 12.1918932,20.5296138 C17.9043415,20.5296138 21.0284009,16.2754067 21.0284009,12.5857574 C21.0284009,12.4648363 21.0253733,12.3444984 21.0193181,12.2247437 C21.6261373,11.8308753 22.1527249,11.3392201 22.5690211,10.7795225" id="twitter" sketch:type="MSShapeGroup"></path>
        </g>
    </g>
</svg>