<?xml version="1.0" encoding="UTF-8" standalone="no"?>
<svg width="30px" height="30px" viewBox="0 0 30 30" version="1.1" xmlns="http://www.w3.org/2000/svg" xmlns:xlink="http://www.w3.org/1999/xlink" xmlns:sketch="http://www.bohemiancoding.com/sketch/ns">
    <!-- Generator: Sketch 3.3.3 (12072) - http://www.bohemiancoding.com/sketch -->
    <title>Artboard 9</title>
    <desc>Created with Sketch.</desc>
    <defs></defs>
    <g id="Page-1" stroke="none" stroke-width="1" fill="none" fill-rule="evenodd" sketch:type="MSPage">
        <g id="Artboard-9" sketch:type="MSArtboardGroup" fill="#454545">
            <path d="M19.104452,17.8315619 L18.3172943,17.8315619 L18.321185,17.4029924 C18.321185,17.2125171 18.4878724,17.0567958 18.691829,17.0567958 L18.7419991,17.0567958 C18.94657,17.0567958 19.1134622,17.2125171 19.1134622,17.4029924 L19.104452,17.8315619 L19.104452,17.8315619 Z M16.1536342,16.9131712 C15.9537732,16.9131712 15.7905669,17.0389387 15.7905669,17.1929319 L15.7905669,19.2770241 C15.7905669,19.4304412 15.9537732,19.5560167 16.1536342,19.5560167 C16.3539049,19.5560167 16.5171111,19.4304412 16.5171111,19.2770241 L16.5171111,17.1929319 C16.5171111,17.0389387 16.3539049,16.9131712 16.1536342,16.9131712 L16.1536342,16.9131712 Z M20.9453856,15.7476618 L20.9453856,19.71193 C20.9453856,20.6627707 20.065874,21.4408011 18.9912111,21.4408011 L10.954584,21.4408011 C9.87910207,21.4408011 9,20.6627707 9,19.71193 L9,15.7476618 C9,14.7970131 9.87910207,14.0187907 10.954584,14.0187907 L18.9912111,14.0187907 C20.065874,14.0187907 20.9453856,14.7970131 20.9453856,15.7476618 L20.9453856,15.7476618 Z M11.490482,20.1422277 L11.4898677,15.9667468 L12.4863063,15.9667468 L12.4863063,15.3482779 L9.83077501,15.3444377 L9.83077501,15.95273 L10.659707,15.9548421 L10.659707,20.1422277 L11.490482,20.1422277 L11.490482,20.1422277 Z M14.476726,16.5884799 L13.6463606,16.5884799 L13.6463606,18.8183088 C13.6463606,19.140888 13.6670429,19.3021776 13.6451319,19.359013 C13.577556,19.5320153 13.2738736,19.7155782 13.155718,19.3778301 C13.13565,19.3184986 13.1532607,19.1401199 13.1530559,18.8336697 L13.1495747,16.5884799 L12.3237144,16.5884799 L12.3259669,18.7985316 C12.3265812,19.1370478 12.3179806,19.3899268 12.3288337,19.5045577 C12.3491065,19.7071297 12.3421442,19.9436878 12.5426196,20.0784799 C12.9161305,20.3309749 13.6322311,20.0408456 13.8114098,19.6798641 L13.8099764,20.1403075 L14.476726,20.1410756 L14.476726,16.5884799 L14.476726,16.5884799 Z M17.1341003,19.1420401 L17.1322573,17.2860574 C17.131643,16.5786873 16.5672811,16.15511 15.8010105,16.7273041 L15.8046964,15.3475099 L14.9745358,15.348662 L14.9704403,20.1111218 L15.6527529,20.1017132 L15.7150047,19.8050556 C16.5871444,20.5556283 17.1353289,20.0416137 17.1341003,19.1420401 L17.1341003,19.1420401 Z M19.7333182,18.8958814 L19.1105953,18.8991456 C19.1101858,18.9221869 19.1093667,18.9490686 19.1089571,18.9780623 L19.1089571,19.3039057 C19.1089571,19.4784441 18.9553753,19.6203406 18.7686199,19.6203406 L18.6469831,19.6203406 C18.4600229,19.6203406 18.3066459,19.4784441 18.3066459,19.3039057 L18.3066459,18.4469586 L19.7324991,18.4469586 L19.7324991,17.9435046 C19.7324991,17.5758027 19.7226699,17.2079088 19.6901105,16.9978483 C19.5881322,16.3327206 18.592308,16.2269223 18.0893789,16.5673586 C17.9314969,16.673925 17.8110887,16.8160134 17.7406459,17.0074488 C17.6697935,17.1988842 17.6347769,17.4604038 17.6347769,17.7921996 L17.6347769,18.8985695 C17.6347769,20.7384232 20.0177517,20.4782477 19.7333182,18.8958814 L19.7333182,18.8958814 Z M16.5390221,12.8884193 C16.5816154,12.9859612 16.6481676,13.0650699 16.7386784,13.1249774 C16.8277558,13.1835409 16.9420207,13.2133027 17.0784013,13.2133027 C17.1979903,13.2133027 17.3042689,13.1827729 17.3966227,13.1203692 C17.488567,13.0581575 17.5663818,12.9650319 17.6296575,12.8409925 L17.6140945,13.1464827 L18.5398855,13.1464827 L18.5398855,9.4546787 L17.8110887,9.4546787 L17.8110887,12.32813 C17.8110887,12.4836592 17.6740938,12.6109628 17.5069968,12.6109628 C17.3409237,12.6109628 17.203724,12.4836592 17.203724,12.32813 L17.203724,9.4546787 L16.4431871,9.4546787 L16.4431871,11.9448751 C16.4431871,12.262078 16.4491256,12.4734826 16.4589548,12.580625 C16.4702175,12.6869993 16.496224,12.7895335 16.5390221,12.8884193 L16.5390221,12.8884193 Z M13.7331855,10.8031751 C13.7331855,10.4487219 13.7649257,10.1722255 13.8273823,9.97272557 C13.8902484,9.77399373 14.0036942,9.6140482 14.1677195,9.49346501 C14.3311305,9.3724978 14.5406161,9.31182218 14.795357,9.31182218 C15.0095524,9.31182218 15.1928267,9.35118453 15.3462037,9.42856514 C15.500195,9.50613776 15.6189649,9.60694377 15.7016943,9.73136719 C15.7856523,9.85617463 15.8423752,9.98443827 15.8730915,10.1157741 C15.9040127,10.248646 15.9193708,10.449682 15.9193708,10.7202261 L15.9193708,11.6539778 C15.9193708,11.9963342 15.904627,12.2482532 15.8763679,12.4081987 C15.8485184,12.5685283 15.7879048,12.7175292 15.6941176,12.8569295 C15.601559,12.9949857 15.4821747,13.0980958 15.3376031,13.1639558 C15.191598,13.2305837 15.0242963,13.2628417 14.8350835,13.2628417 C14.6243693,13.2628417 14.4464192,13.235768 14.2997998,13.1783566 C14.1529757,13.1217132 14.0395299,13.0362682 13.9586435,12.9225974 C13.876938,12.8087346 13.8191913,12.6701023 13.784789,12.5086207 C13.7499771,12.3469471 13.7331855,12.1042446 13.7331855,11.7807053 L13.7331855,10.8031751 L13.7331855,10.8031751 Z M14.4582962,12.2697585 C14.4582962,12.4788589 14.6243693,12.6495571 14.8260734,12.6495571 C15.0283918,12.6495571 15.193441,12.4788589 15.193441,12.2697585 L15.193441,10.3043293 C15.193441,10.0954209 15.0283918,9.92491472 14.8260734,9.92491472 C14.6243693,9.92491472 14.4582962,10.0954209 14.4582962,10.3043293 L14.4582962,12.2697585 L14.4582962,12.2697585 Z M11.8959379,13.2622656 L12.7693063,13.2622656 L12.7703302,10.4304809 L13.8023997,8.0049923 L12.847121,8.0049923 L12.2985269,9.80663567 L11.7419466,8 L10.796702,8 L11.8947093,10.4320169 L11.8959379,13.2622656 L11.8959379,13.2622656 Z" id="youtube" sketch:type="MSShapeGroup"></path>
        </g>
    </g>
</svg>